<svg width="75" height="75" viewBox="0 0 75 75" fill="none" xmlns="http://www.w3.org/2000/svg">
<g clip-path="url(#clip0_6179_1760)">
<path d="M37.5 75C58.2107 75 75 58.2107 75 37.5C75 16.7893 58.2107 0 37.5 0C16.7893 0 0 16.7893 0 37.5C0 58.2107 16.7893 75 37.5 75Z" fill="#FEF800"/>
<path d="M12.25 30.875H15.5C17.625 30.875 18.625 32 18.625 34.125V40.875C18.625 43 17.625 44.125 15.5 44.125H12.25V30.875ZM14.25 32.75V42.25H15.375C16 42.25 16.5 41.875 16.5 41V34.125C16.5 33.125 16.125 32.875 15.375 32.875H14.25V32.75Z" fill="#252525"/>
<path d="M12.25 30.875H15.5C17.625 30.875 18.625 32 18.625 34.125V40.875C18.625 43 17.625 44.125 15.5 44.125H12.25V30.875ZM14.25 32.75V42.25H15.375C16 42.25 16.5 41.875 16.5 41V34.125C16.5 33.125 16.125 32.875 15.375 32.875H14.25V32.75Z" fill="black" fill-opacity="0.2"/>
<path d="M12.25 30.875H15.5C17.625 30.875 18.625 32 18.625 34.125V40.875C18.625 43 17.625 44.125 15.5 44.125H12.25V30.875ZM14.25 32.75V42.25H15.375C16 42.25 16.5 41.875 16.5 41V34.125C16.5 33.125 16.125 32.875 15.375 32.875H14.25V32.75Z" fill="black" fill-opacity="0.2"/>
<path d="M12.25 30.875H15.5C17.625 30.875 18.625 32 18.625 34.125V40.875C18.625 43 17.625 44.125 15.5 44.125H12.25V30.875ZM14.25 32.75V42.25H15.375C16 42.25 16.5 41.875 16.5 41V34.125C16.5 33.125 16.125 32.875 15.375 32.875H14.25V32.75Z" fill="black" fill-opacity="0.2"/>
<path d="M22 36.5H24.875V38.375H22V42.25H25.625V44.125H20V30.875H25.625V32.75H22V36.5Z" fill="#252525"/>
<path d="M22 36.5H24.875V38.375H22V42.25H25.625V44.125H20V30.875H25.625V32.75H22V36.5Z" fill="black" fill-opacity="0.2"/>
<path d="M22 36.5H24.875V38.375H22V42.25H25.625V44.125H20V30.875H25.625V32.75H22V36.5Z" fill="black" fill-opacity="0.2"/>
<path d="M22 36.5H24.875V38.375H22V42.25H25.625V44.125H20V30.875H25.625V32.75H22V36.5Z" fill="black" fill-opacity="0.2"/>
<path d="M33 39.25V41C33 43.125 31.875 44.375 29.875 44.375C27.875 44.375 26.75 43.125 26.75 41V34.125C26.75 32 27.875 30.75 29.875 30.75C31.875 30.75 33 32 33 34.125V35.375H31V34C31 33 30.625 32.75 29.875 32.75C29.125 32.75 28.75 33.125 28.75 34V41.125C28.75 42.125 29.125 42.375 29.875 42.375C30.625 42.375 31 42 31 41.125V39.25H33Z" fill="#252525"/>
<path d="M33 39.25V41C33 43.125 31.875 44.375 29.875 44.375C27.875 44.375 26.75 43.125 26.75 41V34.125C26.75 32 27.875 30.75 29.875 30.75C31.875 30.75 33 32 33 34.125V35.375H31V34C31 33 30.625 32.75 29.875 32.75C29.125 32.75 28.75 33.125 28.75 34V41.125C28.75 42.125 29.125 42.375 29.875 42.375C30.625 42.375 31 42 31 41.125V39.25H33Z" fill="black" fill-opacity="0.2"/>
<path d="M33 39.25V41C33 43.125 31.875 44.375 29.875 44.375C27.875 44.375 26.75 43.125 26.75 41V34.125C26.75 32 27.875 30.75 29.875 30.75C31.875 30.75 33 32 33 34.125V35.375H31V34C31 33 30.625 32.75 29.875 32.75C29.125 32.75 28.75 33.125 28.75 34V41.125C28.75 42.125 29.125 42.375 29.875 42.375C30.625 42.375 31 42 31 41.125V39.25H33Z" fill="black" fill-opacity="0.2"/>
<path d="M33 39.25V41C33 43.125 31.875 44.375 29.875 44.375C27.875 44.375 26.75 43.125 26.75 41V34.125C26.75 32 27.875 30.75 29.875 30.75C31.875 30.75 33 32 33 34.125V35.375H31V34C31 33 30.625 32.75 29.875 32.75C29.125 32.75 28.75 33.125 28.75 34V41.125C28.75 42.125 29.125 42.375 29.875 42.375C30.625 42.375 31 42 31 41.125V39.25H33Z" fill="black" fill-opacity="0.2"/>
<path d="M34 34C34 31.875 35.125 30.625 37.125 30.625C39.125 30.625 40.25 31.875 40.25 34V40.875C40.25 43 39.125 44.25 37.125 44.25C35.125 44.25 34 43 34 40.875V34ZM36.125 41.125C36.125 42.125 36.5 42.375 37.25 42.375C38 42.375 38.375 42 38.375 41.125V34C38.375 33 38 32.75 37.25 32.75C36.5 32.75 36.125 33.125 36.125 34V41.125Z" fill="#252525"/>
<path d="M34 34C34 31.875 35.125 30.625 37.125 30.625C39.125 30.625 40.25 31.875 40.25 34V40.875C40.25 43 39.125 44.25 37.125 44.25C35.125 44.25 34 43 34 40.875V34ZM36.125 41.125C36.125 42.125 36.5 42.375 37.25 42.375C38 42.375 38.375 42 38.375 41.125V34C38.375 33 38 32.75 37.25 32.75C36.5 32.75 36.125 33.125 36.125 34V41.125Z" fill="black" fill-opacity="0.2"/>
<path d="M34 34C34 31.875 35.125 30.625 37.125 30.625C39.125 30.625 40.25 31.875 40.25 34V40.875C40.25 43 39.125 44.25 37.125 44.25C35.125 44.25 34 43 34 40.875V34ZM36.125 41.125C36.125 42.125 36.5 42.375 37.25 42.375C38 42.375 38.375 42 38.375 41.125V34C38.375 33 38 32.75 37.25 32.75C36.5 32.75 36.125 33.125 36.125 34V41.125Z" fill="black" fill-opacity="0.2"/>
<path d="M34 34C34 31.875 35.125 30.625 37.125 30.625C39.125 30.625 40.25 31.875 40.25 34V40.875C40.25 43 39.125 44.25 37.125 44.25C35.125 44.25 34 43 34 40.875V34ZM36.125 41.125C36.125 42.125 36.5 42.375 37.25 42.375C38 42.375 38.375 42 38.375 41.125V34C38.375 33 38 32.75 37.25 32.75C36.5 32.75 36.125 33.125 36.125 34V41.125Z" fill="black" fill-opacity="0.2"/>
<path d="M41.75 30.875H45C47.125 30.875 48.125 32 48.125 34.125V40.875C48.125 43 47.125 44.125 45 44.125H41.75V30.875ZM43.75 32.75V42.25H45C45.625 42.25 46.125 41.875 46.125 41V34.125C46.125 33.125 45.75 32.875 45 32.875H43.75V32.75Z" fill="#252525"/>
<path d="M41.75 30.875H45C47.125 30.875 48.125 32 48.125 34.125V40.875C48.125 43 47.125 44.125 45 44.125H41.75V30.875ZM43.75 32.75V42.25H45C45.625 42.25 46.125 41.875 46.125 41V34.125C46.125 33.125 45.75 32.875 45 32.875H43.75V32.75Z" fill="black" fill-opacity="0.2"/>
<path d="M41.75 30.875H45C47.125 30.875 48.125 32 48.125 34.125V40.875C48.125 43 47.125 44.125 45 44.125H41.75V30.875ZM43.75 32.75V42.25H45C45.625 42.25 46.125 41.875 46.125 41V34.125C46.125 33.125 45.75 32.875 45 32.875H43.75V32.75Z" fill="black" fill-opacity="0.2"/>
<path d="M41.75 30.875H45C47.125 30.875 48.125 32 48.125 34.125V40.875C48.125 43 47.125 44.125 45 44.125H41.75V30.875ZM43.75 32.75V42.25H45C45.625 42.25 46.125 41.875 46.125 41V34.125C46.125 33.125 45.75 32.875 45 32.875H43.75V32.75Z" fill="black" fill-opacity="0.2"/>
<path d="M51.5 36.5H54.375V38.375H51.5V42.25H55.125V44.125H49.5V30.875H55.125V32.75H51.5V36.5Z" fill="#252525"/>
<path d="M51.5 36.5H54.375V38.375H51.5V42.25H55.125V44.125H49.5V30.875H55.125V32.75H51.5V36.5Z" fill="black" fill-opacity="0.2"/>
<path d="M51.5 36.5H54.375V38.375H51.5V42.25H55.125V44.125H49.5V30.875H55.125V32.75H51.5V36.5Z" fill="black" fill-opacity="0.2"/>
<path d="M51.5 36.5H54.375V38.375H51.5V42.25H55.125V44.125H49.5V30.875H55.125V32.75H51.5V36.5Z" fill="black" fill-opacity="0.2"/>
<path d="M56.375 30.875H59.625C61.75 30.875 62.75 32 62.75 34.125V40.875C62.75 43 61.75 44.125 59.625 44.125H56.375V30.875ZM58.5 32.75V42.25H59.625C60.25 42.25 60.75 41.875 60.75 41V34.125C60.75 33.125 60.375 32.875 59.625 32.875H58.5V32.75Z" fill="#252525"/>
<path d="M56.375 30.875H59.625C61.75 30.875 62.75 32 62.75 34.125V40.875C62.75 43 61.75 44.125 59.625 44.125H56.375V30.875ZM58.5 32.75V42.25H59.625C60.25 42.25 60.75 41.875 60.75 41V34.125C60.75 33.125 60.375 32.875 59.625 32.875H58.5V32.75Z" fill="black" fill-opacity="0.2"/>
<path d="M56.375 30.875H59.625C61.75 30.875 62.75 32 62.75 34.125V40.875C62.75 43 61.75 44.125 59.625 44.125H56.375V30.875ZM58.5 32.75V42.25H59.625C60.25 42.25 60.75 41.875 60.75 41V34.125C60.75 33.125 60.375 32.875 59.625 32.875H58.5V32.75Z" fill="black" fill-opacity="0.2"/>
<path d="M56.375 30.875H59.625C61.75 30.875 62.75 32 62.75 34.125V40.875C62.75 43 61.75 44.125 59.625 44.125H56.375V30.875ZM58.5 32.75V42.25H59.625C60.25 42.25 60.75 41.875 60.75 41V34.125C60.75 33.125 60.375 32.875 59.625 32.875H58.5V32.75Z" fill="black" fill-opacity="0.2"/>
</g>
<defs>
<clipPath id="clip0_6179_1760">
<rect width="75" height="75" fill="white"/>
</clipPath>
</defs>
</svg>
